<?xml version="1.0" standalone="no"?>
<!DOCTYPE svg PUBLIC "-//W3C//DTD SVG 20010904//EN"
 "http://www.w3.org/TR/2001/REC-SVG-20010904/DTD/svg10.dtd">
<svg version="1.0" xmlns="http://www.w3.org/2000/svg"
 width="115.000000pt" height="163.000000pt" viewBox="0 0 115.000000 163.000000"
 preserveAspectRatio="xMidYMid meet">
<metadata>
Created by potrace 1.10, written by Peter Selinger 2001-2011
</metadata>
<g transform="translate(0.000000,163.000000) scale(0.100000,-0.100000)"
fill="#000000" stroke="none">
<path d="M31 903 c0 -379 2 -703 6 -721 4 -23 10 -32 20 -28 8 3 12 2 8 -3 -3
-5 14 -28 37 -50 l41 -41 484 0 483 0 0 718 0 718 -48 47 -48 47 -492 0 -491
0 0 -687z m969 -28 l0 -705 -25 0 -25 0 0 203 c-1 269 -13 301 -150 391 -68
45 -70 48 -71 89 -2 79 3 102 28 127 15 14 40 54 57 90 40 85 43 191 9 256
-41 77 -127 127 -217 126 -250 -2 -320 -318 -115 -523 22 -22 53 -42 69 -46
26 -5 30 -10 30 -37 0 -28 -9 -37 -81 -85 -147 -99 -159 -130 -159 -397 l0
-194 -150 0 -150 0 0 705 0 705 475 0 475 0 0 -705z m90 -92 l0 -703 -468 0
-469 0 -36 28 c-20 15 -36 30 -37 33 0 15 84 18 494 19 236 0 433 3 438 6 4 3
8 316 8 697 l0 691 35 -34 35 -34 0 -703z m-405 643 c58 -25 102 -65 125 -114
60 -127 -22 -332 -161 -406 -77 -41 -164 16 -229 148 -29 58 -33 78 -34 144
-1 114 37 177 134 221 53 24 117 27 165 7z m25 -563 l0 -58 75 -48 c138 -91
150 -120 150 -382 l0 -200 -42 -3 -43 -3 -2 188 -2 188 -6 -185 -5 -185 -192
-3 -193 -2 -2 187 -2 188 -6 -185 -5 -185 -35 0 -35 0 -2 170 c-2 186 10 263
49 316 13 17 60 56 105 86 75 51 82 58 85 92 2 27 8 37 23 40 11 2 31 12 45
22 14 10 28 19 33 19 4 0 7 -26 7 -57z"/>
<path d="M405 1223 c4 -21 13 -50 21 -65 16 -30 91 -75 104 -61 5 4 5 30 0 57
-9 61 -53 106 -101 106 -31 0 -31 -1 -24 -37z m84 -2 c17 -16 31 -34 31 -40 0
-18 -10 -13 -37 19 -13 17 -31 30 -38 30 -8 0 -17 5 -20 10 -14 23 35 8 64
-19z"/>
<path d="M659 1232 c-22 -20 -33 -41 -40 -76 -10 -57 -5 -69 24 -60 60 18 107
81 107 140 0 35 -50 33 -91 -4z m71 8 c0 -5 -7 -10 -16 -10 -8 0 -29 -14 -46
-30 -33 -34 -46 -34 -29 -1 18 33 91 66 91 41z"/>
<path d="M485 1010 c-3 -6 -3 -19 0 -30 6 -18 15 -20 104 -20 103 0 128 10
115 44 -5 13 -23 16 -109 16 -59 0 -107 -4 -110 -10z m200 -20 c0 -12 -17 -16
-85 -18 -86 -2 -118 6 -105 27 4 8 37 11 98 9 74 -2 92 -6 92 -18z"/>
<path d="M520 992 c0 -4 34 -8 75 -8 41 0 75 3 75 8 0 4 -34 8 -75 8 -41 0
-75 -3 -75 -8z"/>
</g>
</svg>
