<?xml version="1.0" standalone="no"?>
<!DOCTYPE svg PUBLIC "-//W3C//DTD SVG 20010904//EN"
 "http://www.w3.org/TR/2001/REC-SVG-20010904/DTD/svg10.dtd">
<svg version="1.0" xmlns="http://www.w3.org/2000/svg"
 width="300.000000pt" height="252.000000pt" viewBox="0 0 300.000000 252.000000"
 preserveAspectRatio="xMidYMid meet">
<metadata>
Created by potrace 1.10, written by Peter Selinger 2001-2011
</metadata>
<g transform="translate(0.000000,252.000000) scale(0.100000,-0.100000)"
fill="#000000" stroke="none">
<path d="M747 2513 c414 -2 1092 -2 1505 0 414 1 76 2 -752 2 -828 0 -1166 -1
-753 -2z"/>
<path d="M2750 2188 c-1 -21 -2 -21 -11 -5 -6 9 -15 15 -20 11 -6 -3 -5 -12 3
-21 11 -14 10 -15 -10 -9 -27 9 -29 -5 -2 -21 12 -8 21 -9 25 -3 9 14 41 12
54 -3 8 -10 7 -17 -1 -25 -17 -17 -36 -15 -65 8 -31 24 -43 25 -43 4 0 -11 5
-14 18 -9 14 5 15 4 5 -6 -20 -20 -15 -31 9 -23 20 6 21 5 10 -9 -8 -9 -9 -18
-3 -21 5 -4 14 2 20 11 10 17 10 17 11 1 0 -10 5 -18 10 -18 6 0 10 8 10 18 1
16 1 16 11 -1 6 -9 15 -15 20 -11 6 3 5 12 -3 21 -11 14 -10 15 10 9 24 -8 29
3 10 23 -11 10 -10 11 5 6 12 -5 17 -2 17 10 0 11 -5 15 -15 11 -8 -3 -15 -1
-15 4 0 6 5 10 10 10 6 0 10 5 10 11 0 6 -9 8 -22 3 -20 -6 -21 -5 -10 9 8 9
9 18 3 21 -5 4 -14 -2 -20 -11 -9 -16 -10 -16 -11 -1 0 26 -20 32 -20 6z"/>
<path d="M1050 1913 l0 -268 -51 -2 c-107 -4 -207 -93 -217 -192 -3 -39 -8
-51 -22 -51 -29 0 -105 -58 -127 -98 -12 -21 -25 -57 -29 -80 -6 -41 -7 -42
-48 -42 -156 0 -193 -225 -47 -281 13 -5 127 -10 252 -10 l229 0 0 -245 0
-246 186 -199 c103 -110 189 -197 192 -194 3 3 -19 31 -49 63 -55 57 -171 181
-199 212 -8 9 -35 38 -60 64 l-44 46 299 0 300 0 140 -150 c77 -83 159 -172
182 -198 23 -25 45 -44 48 -40 6 6 -57 75 -304 338 l-61 65 1 305 1 305 -94 8
c-51 4 -111 6 -134 3 l-41 -5 -94 106 c-52 58 -103 116 -115 127 -57 59 -85
55 359 56 l405 0 19 -24 c11 -13 65 -73 121 -132 60 -64 100 -114 97 -122 -3
-8 -5 -27 -5 -43 0 -25 -6 -33 -37 -45 -79 -34 -133 -94 -148 -165 -12 -60
-16 -69 -34 -69 -10 0 -74 62 -146 140 -71 77 -133 140 -138 140 -10 0 28 -45
178 -207 61 -66 162 -177 225 -247 63 -71 126 -137 139 -147 13 -11 67 -65
119 -121 153 -165 255 -269 259 -265 2 3 -71 84 -162 181 -91 98 -165 180
-165 184 0 4 123 6 272 5 l273 -1 112 -119 c62 -65 113 -114 113 -109 0 9 -46
61 -157 177 l-63 67 110 -6 c79 -3 110 -2 110 7 0 8 -108 11 -404 11 l-404 0
-60 63 c-121 127 -160 172 -156 179 3 5 27 8 53 8 l48 0 5 50 c6 65 46 117
110 144 44 18 48 23 48 53 0 39 23 98 48 126 28 31 88 57 133 57 100 0 184
-82 182 -179 l-1 -46 53 0 c38 0 59 -5 74 -19 20 -18 21 -18 46 12 36 43 102
66 170 59 64 -6 65 9 2 18 -51 8 -142 -23 -176 -59 l-23 -24 -44 20 c-25 10
-53 16 -64 13 -17 -5 -20 -2 -20 28 0 38 12 47 60 47 31 0 60 -23 60 -47 0 -9
18 2 50 30 53 48 124 73 180 65 17 -3 30 -1 30 2 0 4 -37 47 -82 96 -46 49
-150 161 -232 249 -82 88 -179 192 -215 230 -37 39 -156 167 -266 285 -110
118 -222 239 -249 268 l-49 52 -429 0 -428 0 0 -267z m850 -168 l0 -425 -417
2 -418 3 -3 423 -2 422 420 0 420 0 0 -425z m330 65 c273 -294 292 -314 364
-390 39 -41 125 -133 191 -205 66 -71 136 -147 156 -167 l37 -38 -35 0 c-56 0
-110 -20 -153 -57 -32 -28 -41 -32 -46 -19 -9 23 -66 39 -98 27 -26 -10 -26
-10 -26 32 -1 162 -181 265 -334 192 -40 -19 -103 -76 -121 -108 -9 -16 -26
-1 -131 113 l-121 131 -2 416 -2 416 84 -89 c45 -49 152 -163 237 -254z
m-1180 -225 c0 -41 -2 -45 -24 -45 -84 0 -166 -83 -166 -168 0 -35 -3 -40 -28
-45 -60 -12 -122 -92 -122 -158 0 -24 -4 -30 -15 -25 -28 10 -76 -7 -111 -39
-30 -29 -34 -38 -34 -85 0 -36 6 -60 21 -81 30 -42 43 -36 14 7 -37 54 -34
103 9 148 29 31 40 36 80 36 45 0 46 1 46 30 0 65 59 139 123 155 23 6 27 13
27 40 0 87 80 175 160 175 19 0 20 -6 20 -107 l0 -106 62 -66 c34 -36 98 -103
141 -148 l80 -83 -172 0 -171 0 0 -60 0 -61 -227 2 c-253 1 -277 6 -313 64
-58 93 18 216 127 203 31 -4 33 -2 39 32 16 98 61 159 133 181 37 11 39 14 45
63 3 32 16 65 33 91 36 51 120 95 179 95 l44 0 0 -45z m1430 -406 c24 -11 53
-28 64 -37 26 -24 66 -111 66 -147 l0 -30 -19 30 c-43 71 -123 111 -198 99
-85 -13 -162 -98 -163 -179 -1 -38 -3 -41 -53 -65 -58 -28 -92 -71 -110 -137
-9 -34 -16 -43 -33 -43 -13 0 -35 -5 -50 -10 -24 -10 -31 -7 -53 16 l-26 26
26 -4 c25 -5 27 -2 32 44 4 27 16 67 29 89 23 42 91 94 136 104 25 5 27 10 28
55 2 141 189 250 324 189z m-1316 -177 c2 -4 42 -4 88 -1 46 4 145 8 220 8
l136 1 1 -300 0 -300 -300 0 -299 0 0 300 0 300 74 0 c41 0 77 -3 80 -8z"/>
<path d="M1730 2110 c0 -44 -18 -60 -69 -60 -17 0 -31 -4 -31 -10 0 -5 14 -10
31 -10 51 0 69 -16 69 -60 0 -22 5 -40 10 -40 6 0 10 15 10 34 0 44 22 66 66
66 19 0 34 5 34 10 0 6 -15 10 -34 10 -19 0 -42 7 -50 16 -9 8 -16 31 -16 50
0 19 -4 34 -10 34 -5 0 -10 -18 -10 -40z m25 -60 c4 -6 1 -17 -5 -25 -9 -11
-15 -12 -25 -2 -9 8 -10 16 -3 25 13 15 25 15 33 2z"/>
<path d="M1245 2106 c-115 -50 -142 -244 -42 -308 12 -8 35 -23 52 -34 18 -12
26 -14 21 -5 -6 9 -5 12 5 9 8 -3 14 -9 14 -14 1 -5 32 -40 71 -79 50 -50 83
-94 114 -153 32 -61 54 -91 82 -109 21 -14 41 -23 45 -19 3 3 1 6 -5 6 -16 0
-92 69 -92 83 0 6 14 -4 32 -22 l32 -33 9 26 c7 20 15 26 37 26 19 0 33 7 40
20 12 22 45 27 56 9 4 -8 0 -9 -15 -4 -16 5 -23 1 -33 -20 -9 -20 -17 -26 -35
-22 -16 3 -28 -2 -38 -16 -18 -26 -13 -34 28 -43 28 -6 30 -8 12 -15 -14 -6
-9 -7 15 -3 67 11 97 25 136 65 l39 40 -1 82 c-1 61 -7 95 -23 131 -32 72
-101 164 -171 230 -176 162 -290 213 -385 172z m116 -17 c3 7 29 -1 64 -18 33
-16 54 -30 47 -30 -22 -2 -72 -44 -72 -61 0 -21 36 -60 56 -60 8 0 27 11 41
24 20 19 24 30 19 50 -3 14 -5 26 -3 26 2 0 21 -18 42 -40 l39 -40 -30 6 c-27
5 -32 2 -43 -24 -7 -17 -23 -40 -37 -53 -30 -28 -30 -43 0 -62 12 -9 31 -32
40 -51 l17 -36 37 20 c20 11 51 23 69 26 32 6 32 7 28 50 -5 54 2 51 61 -29
46 -64 81 -153 71 -181 -3 -8 -21 -19 -39 -24 -27 -7 -33 -13 -32 -33 1 -13 3
-44 5 -69 3 -45 3 -45 -37 -59 -34 -12 -47 -12 -73 -2 -35 15 -32 31 5 31 13
0 29 9 36 20 7 11 23 20 36 20 38 0 24 34 -15 38 -24 2 -34 -2 -43 -17 -6 -12
-21 -21 -34 -21 -13 0 -29 -7 -36 -15 -11 -14 -15 -14 -32 2 -11 10 -24 26
-30 36 -9 18 -8 18 16 2 23 -16 26 -15 55 6 41 30 44 44 17 76 -22 25 -25 26
-55 13 -47 -19 -67 -54 -52 -87 24 -51 5 -30 -27 30 -33 64 -98 141 -145 172
-15 10 -26 20 -23 22 3 3 21 -7 40 -22 32 -24 37 -25 42 -10 4 9 1 22 -5 28
-9 9 -11 8 -6 -5 11 -27 -4 -21 -89 40 -93 67 -116 94 -123 150 -6 47 -3 49
37 26 26 -16 29 -16 61 7 19 13 35 25 37 25 2 1 -2 22 -9 48 -7 30 -17 46 -28
47 -12 0 -10 3 6 11 30 15 53 3 53 -26 0 -15 8 -30 19 -36 27 -14 31 -13 31 8
0 11 -3 13 -8 5 -11 -17 -34 0 -31 23 2 11 -1 26 -5 34 -6 10 -3 9 11 -3 12
-11 22 -14 24 -8z m-95 -44 c-3 -10 2 -27 11 -37 15 -17 15 -18 -5 -18 -12 0
-27 -9 -34 -20 -15 -24 -28 -26 -28 -5 0 9 -11 21 -25 27 -22 10 -23 13 -12
27 8 9 16 23 19 31 4 10 19 15 42 15 32 0 36 -3 32 -20z m184 -65 c23 -23 26
-50 6 -50 -16 0 -46 37 -46 57 0 19 17 16 40 -7z m169 -78 c24 3 26 0 23 -30
-1 -18 5 -47 14 -64 l16 -31 -35 6 c-28 4 -39 1 -58 -19 -30 -32 -39 -30 -39
6 0 24 -7 33 -37 48 l-36 19 31 18 c21 13 32 29 37 52 l6 34 26 -21 c16 -12
38 -20 52 -18z m-409 -85 c15 -12 36 -27 46 -34 11 -6 13 -12 6 -12 -20 -1
-112 93 -112 115 0 13 5 10 17 -14 8 -18 28 -43 43 -55z m606 -293 c-4 -18
-17 -40 -29 -49 -31 -22 -38 -19 -26 11 7 20 6 32 -6 50 -15 23 -15 24 15 24
20 0 33 6 38 18 6 16 7 16 10 -1 2 -11 1 -34 -2 -53z m-252 24 c14 -40 -2 -48
-30 -15 -30 35 -31 49 -2 45 14 -2 26 -14 32 -30z"/>
<path d="M1283 1897 c-35 -23 -39 -37 -23 -67 20 -38 46 -42 79 -14 37 31 39
53 8 82 -28 26 -24 26 -64 -1z m27 -46 c14 -27 13 -41 -4 -41 -14 0 -46 36
-46 52 0 16 40 7 50 -11z"/>
<path d="M1400 1825 c-7 -8 -10 -21 -7 -29 3 -7 0 -20 -6 -27 -10 -11 -9 -11
4 -1 10 8 15 22 12 35 -4 20 -3 21 7 3 10 -14 9 -23 0 -41 -7 -13 -10 -28 -6
-33 3 -5 -1 -15 -9 -22 -14 -12 -13 -16 8 -39 14 -14 37 -46 53 -70 25 -39 29
-42 32 -23 2 12 12 28 22 35 17 12 18 18 8 44 -10 27 -16 31 -45 30 -21 -1
-33 -7 -33 -16 0 -11 -5 -10 -20 4 -14 13 -17 22 -10 35 5 10 6 20 3 24 -4 3
0 17 7 31 7 14 10 28 7 32 -4 3 -2 12 5 20 6 7 8 16 4 20 -3 3 -6 1 -6 -5 0
-7 -5 -12 -11 -12 -5 0 -7 5 -4 10 9 15 -1 12 -15 -5z m102 -169 c3 -13 -1
-31 -8 -41 -12 -16 -14 -16 -28 -2 -24 23 -20 55 7 60 12 2 23 5 23 6 1 0 4
-10 6 -23z"/>
<path d="M1697 1717 c-43 -25 -47 -48 -12 -82 30 -30 33 -30 68 0 33 29 34 55
4 83 l-22 21 -38 -22z m23 -48 c14 -25 12 -39 -5 -39 -18 0 -49 45 -41 59 9
14 34 3 46 -20z"/>
<path d="M1810 1993 c0 -12 -12 -35 -26 -52 -14 -17 -21 -31 -14 -31 6 0 19
-18 29 -41 18 -40 19 -40 25 -14 4 14 15 34 26 45 12 12 15 22 9 26 -6 3 -20
25 -30 48 -13 29 -19 35 -19 19z m22 -100 l-14 -23 -18 22 c-16 20 -16 24 -1
49 l15 27 17 -26 c14 -24 14 -30 1 -49z"/>
<path d="M1190 1685 c-6 -19 -19 -39 -28 -45 -16 -9 -16 -11 0 -20 9 -6 22
-26 28 -45 l12 -35 22 45 23 45 -23 45 -22 45 -12 -35z m40 -45 c4 -3 -1 -17
-10 -33 l-17 -27 -11 25 c-9 19 -9 31 0 50 11 24 13 24 21 8 6 -10 13 -20 17
-23z"/>
<path d="M1270 1576 c0 -44 -22 -66 -66 -66 -19 0 -34 -4 -34 -10 0 -5 17 -10
38 -10 48 0 62 -14 62 -62 0 -21 5 -38 10 -38 6 0 10 17 10 38 0 46 14 62 56
62 18 0 36 5 39 10 4 6 -8 10 -29 10 -44 0 -66 22 -66 66 0 19 -4 34 -10 34
-5 0 -10 -15 -10 -34z m25 -60 c12 -12 12 -16 0 -26 -21 -18 -50 5 -32 25 15
18 16 18 32 1z"/>
<path d="M1080 715 l1 -235 210 0 209 0 0 235 0 235 -210 0 -210 0 0 -235z
m103 208 c-25 -5 -31 -28 -10 -36 6 -3 -2 -6 -19 -6 -30 -1 -32 -3 -38 -51 -4
-27 -4 -61 0 -75 l6 -25 129 0 c147 0 149 1 149 89 0 54 -15 72 -54 65 -12 -3
-15 -2 -8 2 6 3 12 12 12 19 0 10 -19 15 -72 18 -59 2 -53 3 34 5 l107 2 -2
-217 -2 -218 -157 -3 -158 -3 0 214 c0 118 3 217 7 220 3 4 27 6 52 6 25 -1
36 -4 24 -6z m295 -210 c-3 -218 -3 -218 -25 -221 l-23 -3 0 220 0 221 25 0
25 0 -2 -217z m-175 190 c-23 -2 -64 -2 -90 0 -26 2 -7 3 42 3 50 0 71 -1 48
-3z m77 -93 l0 -60 -125 0 -125 0 0 60 0 60 125 0 125 0 0 -60z"/>
<path d="M1212 657 c-12 -13 -22 -30 -22 -38 0 -12 -2 -12 -10 1 -8 12 -11 13
-19 1 -6 -9 -11 -10 -15 -2 -8 12 -26 6 -26 -10 0 -5 15 -9 33 -9 24 0 41 -8
62 -30 16 -16 34 -30 40 -30 6 0 24 14 40 30 21 22 38 30 63 30 22 0 32 4 30
12 -3 7 -18 12 -34 13 -19 0 -37 9 -52 28 -29 33 -61 35 -90 4z m63 -7 c3 -11
13 -20 21 -20 21 0 17 -22 -11 -49 -23 -21 -64 -24 -51 -2 3 5 -3 11 -14 14
-26 7 -26 33 0 40 11 3 20 12 20 21 0 23 27 20 35 -4z"/>
<path d="M1235 809 c-38 -39 -38 -41 -10 -25 17 10 35 28 42 42 6 13 10 24 9
24 -1 0 -20 -19 -41 -41z"/>
<path d="M1300 824 c-14 -7 -21 -14 -16 -14 5 0 1 -9 -9 -20 -32 -35 0 -22 35
15 35 37 32 43 -10 19z"/>
<path d="M2717 1954 c-3 -3 -3 -12 0 -19 2 -8 -5 -20 -16 -27 -12 -7 -21 -18
-21 -24 0 -15 28 -26 42 -17 7 4 8 1 4 -6 -5 -7 -14 -10 -22 -7 -8 3 -14 1
-14 -4 0 -6 7 -10 15 -10 8 0 14 -3 13 -7 -2 -5 1 -10 7 -13 5 -3 9 8 10 25 0
23 -5 30 -25 36 l-25 6 25 4 c20 3 25 10 25 32 1 28 -7 42 -18 31z"/>
<path d="M2747 1940 c-6 -23 10 -37 24 -23 10 10 2 43 -11 43 -4 0 -10 -9 -13
-20z"/>
<path d="M2788 1953 c-2 -5 -3 -19 -3 -33 0 -19 6 -26 25 -29 l25 -4 -25 -6
c-20 -6 -25 -13 -25 -36 1 -17 5 -28 10 -26 6 1 9 7 8 12 -2 5 4 9 12 9 8 0
15 4 15 10 0 5 -6 7 -14 4 -8 -3 -17 0 -22 7 -4 7 -3 10 4 6 14 -9 42 2 42 17
0 6 -9 17 -21 24 -11 7 -18 19 -15 27 5 15 -10 31 -16 18z"/>
<path d="M2746 1852 c-7 -11 4 -52 14 -52 10 0 21 41 14 52 -3 4 -9 8 -14 8
-5 0 -11 -4 -14 -8z"/>
<path d="M2749 1703 c0 -11 -3 -13 -6 -5 -2 6 -11 12 -19 12 -8 0 -11 -6 -8
-15 5 -11 2 -13 -10 -9 -22 8 -20 -12 2 -25 15 -9 15 -10 -5 -11 -27 0 -31
-20 -5 -21 10 0 12 -3 5 -6 -21 -8 -14 -26 8 -20 16 4 18 3 9 -8 -7 -8 -7 -15
-1 -19 5 -4 14 2 20 11 9 16 10 16 11 -4 0 -13 5 -23 10 -23 6 0 10 10 10 23
1 20 2 20 11 4 6 -9 15 -15 20 -11 6 4 6 11 -1 19 -9 11 -7 12 9 8 22 -6 29
12 9 20 -8 3 -6 6 5 6 25 1 21 21 -5 21 -21 0 -21 0 -2 14 10 8 16 18 12 22
-4 4 -14 1 -23 -6 -18 -15 -20 1 -3 18 9 9 8 12 -4 12 -9 0 -19 -6 -21 -12 -3
-8 -6 -6 -6 5 -1 9 -5 17 -11 17 -5 0 -10 -8 -11 -17z m38 -49 c8 -21 -19 -46
-40 -38 -17 6 -23 35 -10 47 12 13 44 7 50 -9z"/>
<path d="M307 339 c-5 -17 -11 -20 -31 -15 -30 7 -33 0 -8 -27 16 -19 16 -19
-5 -13 -14 5 -23 3 -23 -3 0 -10 6 -12 42 -15 7 -1 13 6 14 14 2 35 5 41 14
35 6 -3 10 2 10 12 0 14 3 13 13 -6 6 -14 18 -26 26 -29 8 -3 11 0 7 6 -3 5 1
9 9 8 7 0 14 4 14 9 1 13 -32 14 -42 0 -5 -6 -7 -4 -6 5 4 43 -24 59 -34 19z"/>
<path d="M566 331 c11 -22 21 -29 40 -28 13 1 23 7 22 12 -1 6 -8 9 -15 7 -8
-2 -10 3 -6 14 5 13 3 16 -10 11 -9 -3 -17 -2 -17 3 0 6 -6 10 -14 10 -12 0
-12 -4 0 -29z"/>
<path d="M800 356 c0 -3 4 -16 10 -30 7 -18 16 -24 34 -23 14 1 25 7 25 12 0
6 -7 9 -14 7 -10 -2 -13 3 -8 14 5 13 3 16 -10 11 -9 -3 -17 -2 -17 3 0 6 -4
10 -10 10 -5 0 -10 -2 -10 -4z"/>
<path d="M520 339 c0 -5 5 -7 12 -3 7 4 8 3 4 -5 -4 -6 -13 -10 -20 -9 -6 2
-12 -1 -14 -7 -2 -13 46 -17 54 -4 6 11 -13 39 -27 39 -5 0 -9 -5 -9 -11z"/>
<path d="M760 339 c0 -5 6 -7 13 -3 7 4 8 3 4 -2 -5 -5 -14 -9 -20 -9 -7 0
-12 -4 -12 -10 0 -5 6 -9 12 -9 7 1 10 -2 7 -7 -3 -5 -12 -9 -20 -9 -21 0 -17
-17 6 -23 26 -7 56 48 39 69 -14 17 -29 18 -29 3z"/>
<path d="M520 293 c0 -7 -7 -10 -15 -7 -8 4 -15 1 -15 -5 0 -6 5 -11 11 -11 8
0 8 -4 0 -14 -7 -8 -8 -17 -3 -20 15 -9 42 38 31 55 -6 9 -9 10 -9 2z"/>
<path d="M598 290 c-6 -19 21 -62 34 -54 5 3 4 12 -3 20 -9 11 -8 14 5 14 9 0
16 5 16 11 0 6 -9 9 -20 6 -10 -3 -21 0 -23 7 -2 7 -6 5 -9 -4z"/>
<path d="M840 289 c0 -5 0 -11 0 -14 0 -3 -9 -14 -20 -25 -21 -21 -27 -50 -10
-50 6 0 10 8 11 18 0 10 3 12 6 5 8 -21 26 -14 20 8 -4 16 -3 18 8 9 10 -8 15
-8 20 1 4 6 1 15 -6 20 -11 7 -10 9 4 9 26 0 20 17 -8 22 -14 3 -25 1 -25 -3z"/>
<path d="M367 283 c-14 -4 -16 -8 -6 -19 10 -12 9 -13 -5 -8 -11 4 -19 -1 -25
-17 l-10 -24 -1 25 c0 18 -3 21 -9 11 -11 -17 -2 -51 13 -51 6 0 17 9 24 21 7
11 19 18 27 15 17 -6 30 10 15 19 -7 5 -5 12 7 21 19 14 8 17 -30 7z"/>
<path d="M253 246 c3 -6 10 -10 16 -8 6 1 11 -5 11 -13 0 -8 4 -15 9 -15 5 0
8 10 8 23 0 16 -6 22 -24 23 -14 1 -22 -3 -20 -10z"/>
<path d="M527 238 c-4 -12 -4 -24 -1 -27 8 -9 37 27 30 38 -11 17 -23 13 -29
-11z"/>
<path d="M573 240 c-3 -11 -9 -20 -14 -20 -5 0 -9 -4 -9 -10 0 -5 7 -10 15
-10 8 0 15 4 15 10 0 5 7 7 15 4 16 -6 19 4 9 30 -9 22 -25 20 -31 -4z"/>
<path d="M767 238 c-4 -12 -4 -24 -1 -27 8 -9 37 27 30 38 -11 17 -23 13 -29
-11z"/>
</g>
</svg>
